<?xml version="1.0" standalone="no"?>
<!DOCTYPE svg PUBLIC "-//W3C//DTD SVG 20010904//EN"
 "http://www.w3.org/TR/2001/REC-SVG-20010904/DTD/svg10.dtd">
<svg version="1.0" xmlns="http://www.w3.org/2000/svg"
 width="600.000000pt" height="599.000000pt" viewBox="0 0 600.000000 599.000000"
 preserveAspectRatio="xMidYMid meet">

<g transform="translate(0.000000,599.000000) scale(0.100000,-0.100000)"
fill="#9f58fc" stroke="none">
<path d="M3070 5943 c-800 -89 -1355 -365 -1863 -928 -119 -133 -182 -215
-272 -359 -37 -61 -88 -136 -112 -167 -194 -256 -349 -649 -410 -1039 -26
-166 -25 -596 1 -765 104 -677 420 -1244 941 -1693 370 -318 901 -537 1430
-589 104 -10 509 -10 602 0 470 51 919 242 1263 536 52 45 142 120 200 167
381 310 612 579 778 909 157 311 236 603 282 1038 18 170 25 313 13 262 -19
-78 -102 -303 -147 -399 -185 -392 -505 -776 -871 -1043 -217 -158 -503 -296
-745 -358 -287 -74 -670 -85 -970 -29 -449 85 -810 271 -1107 571 -360 362
-566 759 -654 1258 -26 144 -35 434 -20 580 41 387 169 757 359 1035 399 587
773 878 1282 994 98 23 104 28 20 19z"/>
<path d="M5931 3354 c0 -11 3 -14 6 -6 3 7 2 16 -1 19 -3 4 -6 -2 -5 -13z"/>
</g>
</svg>
